<?xml version="1.0" encoding="utf-8"?>
<!-- Generator: Adobe Illustrator 25.0.1, SVG Export Plug-In . SVG Version: 6.00 Build 0)  -->
<svg version="1.1" id="Capa_1" xmlns="http://www.w3.org/2000/svg" xmlns:xlink="http://www.w3.org/1999/xlink" x="0px" y="0px"
	 viewBox="0 0 35 35" style="enable-background:new 0 0 35 35;" xml:space="preserve">
<desc>Created with Sketch.</desc>
<g id="ESCRITORIO">
	<g id="_x30_1-HOME-MODAL" transform="translate(-1005.000000, -692.000000)">
		<g id="Group-3" transform="translate(748.000000, 664.000000)">
			<g id="Group-14" transform="translate(231.000000, 0.000000)">
				<g id="Group-10-Copy" transform="translate(26.000000, 28.000000)">
					<g id="noun_Pizza-Box_309176">
						<path id="Shape" d="M3.4,18.8v3.4c0,0.3,0.3,0.5,0.5,0.5H31c0.3,0,0.5-0.3,0.5-0.5v-3.4c0-0.1,0-0.3-0.1-0.4l-6-6.2H9.6
							l-6,6.2C3.6,18.6,3.4,18.7,3.4,18.8z M10,13.3h15l4.9,5H19.1c-0.1,0.8-0.8,1.3-1.4,1.3c-0.8,0-1.3-0.5-1.4-1.3h-11L10,13.3z
							 M4.5,19.3h10.9l0.1,0.1c0.5,0.7,1.3,1.2,2.1,1.2c0.8,0,1.6-0.4,2.1-1.2l0.1-0.1h10.9v2.4H4.5C4.5,21.7,4.5,19.3,4.5,19.3z"/>
					</g>
				</g>
			</g>
		</g>
	</g>
</g>
</svg>
